<svg xmlns="http://www.w3.org/2000/svg" viewBox="0 0 282.86 43.77"><defs><style>.cls-1{fill:#fff;}</style></defs><g id="Camada_2" data-name="Camada 2"><g id="Marca"><g id="Logotipo"><polygon class="cls-1" points="23.14 8.79 23.14 28.29 7.17 8.79 0 8.79 0 43.39 8.68 43.39 8.68 23.88 24.7 43.39 31.82 43.39 31.82 8.79 23.14 8.79"/><path class="cls-1" d="M50.61,16.18C42.34,16.18,36.34,22,36.34,30s6.26,13.8,15.23,13.8c4.79,0,8.51-1.46,11-4.34l.29-.34-4.63-5-.37.35a8.31,8.31,0,0,1-6.14,2.36c-3.39,0-5.86-1.55-6.73-4.18H64.37l.09-1c0-.52.09-1.06.09-1.49C64.55,21.89,58.82,16.18,50.61,16.18Zm5.78,11H44.89a5.6,5.6,0,0,1,5.77-4.38A5.58,5.58,0,0,1,56.39,27.22Z"/><polygon class="cls-1" points="103.06 16.56 97.13 33.04 91.34 16.56 84.3 16.56 78.32 33.04 72.57 16.56 64.44 16.56 74.12 43.39 82.02 43.39 87.66 28.3 93.13 43.39 101.03 43.39 110.75 16.56 103.06 16.56"/><polygon class="cls-1" points="152.35 8.79 145.18 8.79 133.07 29.19 120.78 8.79 113.57 8.79 113.57 43.39 121.86 43.39 121.86 24.94 130.92 39.83 134.99 39.83 144.1 24.54 144.15 43.39 152.44 43.39 152.35 8.79"/><path class="cls-1" d="M171.67,16.18C163.15,16.18,157,22,157,30s6.19,13.8,14.71,13.8S186.33,38,186.33,30,180.16,16.18,171.67,16.18Zm0,20.45c-3.67,0-6.13-2.68-6.13-6.66s2.46-6.65,6.13-6.65S177.74,26,177.74,30,175.3,36.63,171.67,36.63Z"/><path class="cls-1" d="M203.11,16.18c-8.53,0-14.71,5.8-14.71,13.79s6.18,13.8,14.71,13.8S217.77,38,217.77,30,211.6,16.18,203.11,16.18Zm0,20.45C199.44,36.63,197,34,197,30s2.46-6.65,6.13-6.65S209.19,26,209.19,30,206.74,36.63,203.11,36.63Z"/><path class="cls-1" d="M238,16.18a12.19,12.19,0,0,0-8.05,2.73V16.56h-8.15V43.39h8.49V30.12c0-4.11,2.07-6.46,5.69-6.46,3.19,0,4.73,1.83,4.73,5.59V43.39h8.49V28.1C249.16,20.64,245,16.18,238,16.18Z"/><rect class="cls-1" x="255.65" y="34.98" width="27.21" height="8.41" transform="translate(538.5 78.37) rotate(180)"/></g><path class="cls-1" d="M279.83,0H258.67a3,3,0,0,0-3,3V24.18a3,3,0,0,0,3,3h21.16a3,3,0,0,0,3-3V3A3,3,0,0,0,279.83,0ZM275,17.37a6.71,6.71,0,0,1-9.49-9.49l1.39,1.39A4.74,4.74,0,1,1,273.59,16Z"/></g></g></svg>